# xmcd CD database file
#
# Track frame offsets:
#	182
#	29605
#	49025
#	88007
#	107500
#	127447
#	158847
#	179430
#	207415
#	243420
#
# Disc length: 3443 seconds
#
# Revision: 0
# Processed by: cddbd v1.5PL3 Copyright (c) Steve Scherf et al.
# Submitted via: CDex 1.51
#
DISCID=8d0d710a
DTITLE=Barry Golberg and friends - Barry Golberg and friends "Live"
DYEAR=1976
DGENRE=Blues
TTITLE0=On the road
TTITLE1=Chicago my home town
TTITLE2=I got a woman (dedication)
TTITLE3=That's all right Mama
TTITLE4=Milk cow (muscraft)
TTITLE5=A taste of honey (organ serenade
TTITLE6=Josephine (crying for you)
TTITLE7=Suzie Q
TTITLE8=Medley (California earthquake)
TTITLE9=Blue suede shoes (trying too hard)
EXTD=YEAR: 1976
EXTT0=
EXTT1=
EXTT2=
EXTT3=
EXTT4=
EXTT5=
EXTT6=
EXTT7=
EXTT8=
EXTT9=
PLAYORDER=
